<mxfile host="app.diagrams.net" modified="2024-02-05T01:37:57.193Z" agent="Mozilla/5.0 (Macintosh; Intel Mac OS X 10_15_7) AppleWebKit/537.36 (KHTML, like Gecko) Chrome/121.0.0.0 Safari/537.36" etag="Q1cDVzDYwkVBwZjKgjR6" version="23.1.1" type="gitlab">
  <diagram name="Page-1" id="03018318-947c-dd8e-b7a3-06fadd420f32">
    <mxGraphModel dx="1242" dy="819" grid="1" gridSize="10" guides="1" tooltips="1" connect="1" arrows="1" fold="1" page="1" pageScale="1" pageWidth="1100" pageHeight="850" background="none" math="0" shadow="0">
      <root>
        <mxCell id="0" />
        <mxCell id="1" parent="0" />
        <mxCell id="677b7b8949515195-1" value="" style="whiteSpace=wrap;html=1;rounded=0;shadow=0;labelBackgroundColor=none;strokeColor=#000000;strokeWidth=1;fillColor=none;fontFamily=Verdana;fontSize=12;fontColor=#000000;align=center;comic=1;" parent="1" vertex="1">
          <mxGeometry x="20" y="20" width="1060" height="810" as="geometry" />
        </mxCell>
        <mxCell id="677b7b8949515195-9" value="" style="line;strokeWidth=1;html=1;rounded=0;shadow=0;labelBackgroundColor=none;fillColor=none;fontFamily=Verdana;fontSize=14;fontColor=#000000;align=center;comic=1;" parent="1" vertex="1">
          <mxGeometry x="20" y="140" width="1060" height="10" as="geometry" />
        </mxCell>
        <mxCell id="ImrdNMykeJe4pD5NqaXg-2" value="VegeFacts" style="whiteSpace=wrap;html=1;rounded=0;shadow=0;labelBackgroundColor=none;strokeWidth=1;fontFamily=Verdana;fontSize=28;align=center;comic=1;" vertex="1" parent="1">
          <mxGeometry x="120" y="60" width="190" height="50" as="geometry" />
        </mxCell>
        <mxCell id="ImrdNMykeJe4pD5NqaXg-3" value="Home" style="text;html=1;points=[];align=left;verticalAlign=top;spacingTop=-4;fontSize=14;fontFamily=Verdana" vertex="1" parent="1">
          <mxGeometry x="550" y="75" width="60" height="20" as="geometry" />
        </mxCell>
        <mxCell id="ImrdNMykeJe4pD5NqaXg-4" value="Predict" style="text;html=1;points=[];align=left;verticalAlign=top;spacingTop=-4;fontSize=14;fontFamily=Verdana" vertex="1" parent="1">
          <mxGeometry x="620" y="75" width="60" height="20" as="geometry" />
        </mxCell>
        <mxCell id="ImrdNMykeJe4pD5NqaXg-5" value="Veges!" style="text;html=1;points=[];align=left;verticalAlign=top;spacingTop=-4;fontSize=14;fontFamily=Verdana" vertex="1" parent="1">
          <mxGeometry x="700" y="75" width="60" height="20" as="geometry" />
        </mxCell>
        <mxCell id="ImrdNMykeJe4pD5NqaXg-6" value="History" style="text;html=1;points=[];align=left;verticalAlign=top;spacingTop=-4;fontSize=14;fontFamily=Verdana" vertex="1" parent="1">
          <mxGeometry x="770" y="75" width="60" height="20" as="geometry" />
        </mxCell>
        <mxCell id="ImrdNMykeJe4pD5NqaXg-7" value="Profile" style="text;html=1;points=[];align=left;verticalAlign=top;spacingTop=-4;fontSize=14;fontFamily=Verdana" vertex="1" parent="1">
          <mxGeometry x="850" y="75" width="60" height="20" as="geometry" />
        </mxCell>
        <mxCell id="ImrdNMykeJe4pD5NqaXg-8" value="Login/Signup" style="text;html=1;points=[];align=left;verticalAlign=top;spacingTop=-4;fontSize=14;fontFamily=Verdana" vertex="1" parent="1">
          <mxGeometry x="920" y="75" width="60" height="20" as="geometry" />
        </mxCell>
        <mxCell id="ImrdNMykeJe4pD5NqaXg-9" value="" style="whiteSpace=wrap;html=1;aspect=fixed;" vertex="1" parent="1">
          <mxGeometry x="395" y="240" width="370" height="370" as="geometry" />
        </mxCell>
        <mxCell id="ImrdNMykeJe4pD5NqaXg-10" value="&lt;font style=&quot;font-size: 36px;&quot;&gt;Login&lt;/font&gt;" style="text;html=1;strokeColor=none;fillColor=none;align=center;verticalAlign=middle;whiteSpace=wrap;rounded=0;" vertex="1" parent="1">
          <mxGeometry x="525" y="268.5" width="90" height="50" as="geometry" />
        </mxCell>
        <mxCell id="ImrdNMykeJe4pD5NqaXg-11" value="" style="group" vertex="1" connectable="0" parent="1">
          <mxGeometry x="445" y="348.5" width="290" height="61.5" as="geometry" />
        </mxCell>
        <mxCell id="ImrdNMykeJe4pD5NqaXg-12" value="Email" style="fillColor=none;strokeColor=none;html=1;fontSize=11;fontStyle=0;align=left;fontColor=#596780;fontStyle=1;fontSize=11" vertex="1" parent="ImrdNMykeJe4pD5NqaXg-11">
          <mxGeometry x="5" width="280" height="20" as="geometry" />
        </mxCell>
        <mxCell id="ImrdNMykeJe4pD5NqaXg-13" value="tom@gmail.com" style="rounded=1;arcSize=9;align=left;spacingLeft=5;strokeColor=#4C9AFF;html=1;strokeWidth=2;fontSize=12" vertex="1" parent="ImrdNMykeJe4pD5NqaXg-11">
          <mxGeometry y="28.5" width="290" height="33" as="geometry" />
        </mxCell>
        <mxCell id="ImrdNMykeJe4pD5NqaXg-14" value="" style="group" vertex="1" connectable="0" parent="1">
          <mxGeometry x="445" y="427" width="290" height="61.5" as="geometry" />
        </mxCell>
        <mxCell id="ImrdNMykeJe4pD5NqaXg-15" value="Password" style="fillColor=none;strokeColor=none;html=1;fontSize=11;fontStyle=0;align=left;fontColor=#596780;fontStyle=1;fontSize=11" vertex="1" parent="ImrdNMykeJe4pD5NqaXg-14">
          <mxGeometry x="5" width="280" height="20" as="geometry" />
        </mxCell>
        <mxCell id="ImrdNMykeJe4pD5NqaXg-16" value="*********" style="rounded=1;arcSize=9;align=left;spacingLeft=5;strokeColor=#4C9AFF;html=1;strokeWidth=2;fontSize=12" vertex="1" parent="ImrdNMykeJe4pD5NqaXg-14">
          <mxGeometry y="28.5" width="290" height="33" as="geometry" />
        </mxCell>
        <mxCell id="ImrdNMykeJe4pD5NqaXg-17" value="&lt;font style=&quot;font-size: 18px;&quot;&gt;Lets go!&lt;/font&gt;" style="rounded=1;fillColor=#0057D8;strokeColor=none;html=1;whiteSpace=wrap;fontColor=#ffffff;align=center;verticalAlign=middle;fontStyle=0;fontSize=12;sketch=0;" vertex="1" parent="1">
          <mxGeometry x="525" y="528.5" width="110" height="33" as="geometry" />
        </mxCell>
      </root>
    </mxGraphModel>
  </diagram>
</mxfile>
